#!OML:ASF F:\VICON\USERDATA\INSTALL\rory3\rory3.ASF
:FULLY-SPECIFIED
:DEGREES
1636
root 0.512512 10.0845 -6.70678 -20.5182 -24.2843 1.26959
lowerback 38.7161 -0.905981 -6.39639
upperback 13.2548 -4.15136 -2.40314
thorax -3.90863 -2.36342 2.24906
lowerneck -13.9505 1.47239 -7.47485
upperneck -7.51822 2.98081 4.17907
head -0.212038 1.67686 2.77348
rclavicle 2.42517e-014 -2.94201e-014
rhumerus -43.632 37.6652 -95.5913
rradius 58.7049
rwrist -26.6867
rhand -9.8552 5.13376
rfingers 7.12502
rthumb 16.1231 -24.2156
lclavicle 2.42517e-014 -2.94201e-014
lhumerus 51.5565 -10.8385 42.9332
lradius 122.113
lwrist 64.8845
lhand 22.3031 30.083
lfingers 7.12502
lthumb 46.6742 52.8914
rfemur -77.9942 -13.6514 9.55554
rtibia 94.1911
rfoot 6.92817 1.14031
rtoes 2.68969
lfemur -110.456 46.8559 -30.6774
ltibia 144.625
lfoot 0.957252 -14.2581
ltoes -3.78731
1637
root 0.541561 10.1409 -6.75187 -20.4792 -24.3211 1.24233
lowerback 38.8052 -0.880608 -6.43526
upperback 13.2544 -4.14499 -2.431
thorax -3.93666 -2.35984 2.23941
lowerneck -13.9159 1.39243 -7.69528
upperneck -7.88787 2.9076 4.37861
head -0.340157 1.65031 2.87656
rclavicle 1.47101e-014 3.97569e-015
rhumerus -43.6288 37.7392 -95.6768
rradius 58.7034
rwrist -26.782
rhand -9.8239 5.05879
rfingers 7.12502
rthumb 16.1532 -24.2881
lclavicle 1.47101e-014 3.97569e-015
lhumerus 51.7195 -10.9922 42.4462
lradius 122.212
lwrist 65.5191
lhand 22.4287 30.2583
lfingers 7.12502
lthumb 46.7905 53.0163
rfemur -77.5369 -13.5192 9.61949
rtibia 93.7322
rfoot 6.85969 1.01434
rtoes 2.60567
lfemur -109.569 46.3336 -30.5724
ltibia 144.115
lfoot 0.642582 -13.4455
ltoes -3.78958
1638
root 0.540066 10.1425 -6.74986 -20.4075 -24.3806 1.15766
lowerback 38.9308 -0.858997 -6.42245
upperback 13.2091 -4.12601 -2.42814
thorax -4.02819 -2.34581 2.23429
lowerneck -13.8045 1.29344 -8.00035
upperneck -8.25899 2.8162 4.59323
head -0.481954 1.61657 3.00006
rclavicle 1.90833e-014 -8.74653e-015
rhumerus -43.6849 37.8045 -95.7858
rradius 58.6379
rwrist -26.8544
rhand -9.79156 5.10109
rfingers 7.12502
rthumb 16.1844 -24.2433
lclavicle 1.90833e-014 -8.74653e-015
lhumerus 51.828 -11.1373 42.0206
lradius 122.314
lwrist 65.9914
lhand 22.3642 30.4098
lfingers 7.12502
lthumb 46.7308 53.1937
rfemur -77.5497 -13.4543 9.73347
rtibia 93.7228
rfoot 6.81002 0.976743
rtoes 2.31532
lfemur -109.633 46.4154 -30.4982
ltibia 144.154
lfoot 0.670078 -13.5531
ltoes -2.71899
1639
root 0.508455 10.0889 -6.70005 -20.3 -24.4485 1.02436
lowerback 39.0743 -0.842445 -6.31843
upperback 13.1315 -4.08106 -2.42161
thorax -4.16958 -2.31327 2.1796
lowerneck -13.7947 1.15268 -8.15579
upperneck -8.4433 2.64978 4.63691
head -0.535711 1.53882 3.03751
rclavicle -3.37934e-014 2.46493e-014
rhumerus -43.8491 37.7765 -95.918
rradius 58.6209
rwrist -26.9135
rhand -9.84196 5.20874
rfingers 7.12502
rthumb 16.1358 -24.1396
lclavicle -3.37934e-014 2.46493e-014
lhumerus 51.9574 -11.3482 41.6406
lradius 122.421
lwrist 66.5002
lhand 22.2506 30.3442
lfingers 7.12502
lthumb 46.6256 53.1736
rfemur -78.0608 -13.4967 9.8723
rtibia 94.1709
rfoot 6.82339 1.03042
rtoes 2.41079
lfemur -110.658 47.1546 -30.564
ltibia 144.743
lfoot 0.789653 -14.3429
ltoes -1.94742
1640
root 0.507285 10.0895 -6.69721 -20.2248 -24.4984 0.954495
lowerback 39.1559 -0.803125 -6.28164
upperback 13.1131 -4.02817 -2.43831
thorax -4.22261 -2.2834 2.12748
lowerneck -13.8946 1.03118 -8.2093
upperneck -8.5768 2.50186 4.64525
head -0.553779 1.46769 3.0462
rclavicle -5.32743e-014 -1.03368e-014
rhumerus -43.9666 37.7279 -96.0152
rradius 58.7056
rwrist -26.9288
rhand -9.86662 5.21654
rfingers 7.12502
rthumb 16.1121 -24.1337
lclavicle -5.32743e-014 -1.03368e-014
lhumerus 52.1523 -11.5504 41.1741
lradius 122.597
lwrist 66.9428
lhand 22.2291 30.2671
lfingers 7.12502
lthumb 46.6057 53.1051
rfemur -78.1034 -13.4691 9.95604
rtibia 94.2389
rfoot 6.74614 1.02448
rtoes 2.68045
lfemur -110.739 47.1688 -30.5283
ltibia 144.778
lfoot 0.599759 -14.4598
ltoes -2.17773
1641
root 0.505971 10.0904 -6.69491 -20.1507 -24.5245 0.919665
lowerback 39.1129 -0.75931 -6.31763
upperback 13.1688 -3.9839 -2.44862
thorax -4.14831 -2.2674 2.11591
lowerneck -13.9955 0.952736 -8.2873
upperneck -8.77438 2.41663 4.69663
head -0.598125 1.4298 3.07629
rclavicle -8.54774e-014 4.37326e-014
rhumerus -43.9169 37.7477 -96.0444
rradius 58.7242
rwrist -26.9338
rhand -9.8926 5.17492
rfingers 7.12502
rthumb 16.0871 -24.1773
lclavicle -8.54774e-014 4.37326e-014
lhumerus 52.3397 -11.6574 40.704
lradius 122.821
lwrist 67.2633
lhand 22.053 30.3383
lfingers 7.12502
lthumb 46.4426 53.2463
rfemur -78.1566 -13.4623 10.0293
rtibia 94.2956
rfoot 6.69656 1.06221
rtoes 2.58578
lfemur -110.75 47.0787 -30.4776
ltibia 144.779
lfoot 0.467722 -14.5181
ltoes -2.21675
1642
root 0.503939 10.0898 -6.69212 -20.0492 -24.5228 0.900489
lowerback 39.0317 -0.722806 -6.36384
upperback 13.22 -3.94716 -2.4442
thorax -4.06463 -2.2558 2.12701
lowerneck -14.046 0.841523 -8.34921
upperneck -9.05931 2.27943 4.68477
head -0.675356 1.36511 3.07822
rclavicle -1.13705e-013 -3.73715e-014
rhumerus -43.7946 37.7608 -96.0217
rradius 58.6762
rwrist -27.0418
rhand -9.90482 5.19141
rfingers 7.12502
rthumb 16.0753 -24.1618
lclavicle -1.13705e-013 -3.73715e-014
lhumerus 52.4773 -11.7767 40.3422
lradius 123.042
lwrist 67.5422
lhand 21.3749 30.4013
lfingers 7.12502
lthumb 45.8137 53.573
rfemur -78.2755 -13.5108 10.0999
rtibia 94.3104
rfoot 6.7227 1.08945
rtoes 2.63677
lfemur -110.859 46.9135 -30.4554
ltibia 144.771
lfoot 0.598491 -14.5445
ltoes -2.12421
1643
root 0.502583 10.0895 -6.68862 -19.9295 -24.5222 0.857421
lowerback 38.9537 -0.68543 -6.3773
upperback 13.2633 -3.89599 -2.42234
thorax -3.99278 -2.23606 2.13532
lowerneck -14.1202 0.712064 -8.35591
upperneck -9.34963 2.10773 4.56957
head -0.746568 1.28094 3.03283
rclavicle -4.45278e-014 -1.98785e-014
rhumerus -43.7009 37.7658 -95.9867
rradius 58.6362
rwrist -27.2246
rhand -10.1061 5.34268
rfingers 7.12502
rthumb 15.8815 -24.0261
lclavicle -4.45278e-014 -1.98785e-014
lhumerus 52.6097 -11.9405 40.0217
lradius 123.249
lwrist 67.6452
lhand 20.4571 30.232
lfingers 7.12502
lthumb 44.9606 53.747
rfemur -78.4017 -13.6013 10.1991
rtibia 94.3236
rfoot 6.72233 1.10014
rtoes 2.66359
lfemur -111.028 46.7835 -30.4694
ltibia 144.771
lfoot 0.593044 -14.7075
ltoes -2.91326
1644
root 0.502554 10.0902 -6.68389 -19.8311 -24.4983 0.830962
lowerback 38.8472 -0.643181 -6.37077
upperback 13.3075 -3.82794 -2.39447
thorax -3.9132 -2.20766 2.13338
lowerneck -14.2348 0.591387 -8.52932
upperneck -9.5034 1.97974 4.60392
head -0.772302 1.22448 3.07428
rclavicle 5.64548e-014 -2.06736e-014
rhumerus -43.6515 37.7527 -95.9423
rradius 58.5653
rwrist -27.3972
rhand -10.2651 5.3496
rfingers 7.12502
rthumb 15.7284 -24.0313
lclavicle 5.64548e-014 -2.06736e-014
lhumerus 52.7417 -12.1443 39.7684
lradius 123.423
lwrist 67.8259
lhand 19.7241 29.9325
lfingers 7.12502
lthumb 44.278 53.711
rfemur -78.5021 -13.7387 10.274
rtibia 94.3348
rfoot 6.7235 1.16187
rtoes 2.54524
lfemur -111.092 46.6389 -30.4686
ltibia 144.771
lfoot 0.380197 -14.9414
ltoes -3.78636
1645
root 0.503056 10.0941 -6.68016 -19.8049 -24.3918 0.939708
lowerback 38.8157 -0.611405 -6.46956
upperback 13.2909 -3.82115 -2.40815
thorax -3.91532 -2.20509 2.16651
lowerneck -14.3352 0.454753 -8.90515
upperneck -9.55146 1.86721 4.87944
head -0.770126 1.18284 3.24026
rclavicle 7.15625e-015 -7.95139e-016
rhumerus -43.7168 37.7718 -95.9651
rradius 58.5139
rwrist -27.5677
rhand -10.1786 5.17186
rfingers 7.12502
rthumb 15.8117 -24.2024
lclavicle 7.15625e-015 -7.95139e-016
lhumerus 52.7427 -12.3725 39.591
lradius 123.556
lwrist 68.2602
lhand 19.3568 29.5819
lfingers 7.12502
lthumb 43.9354 53.4888
rfemur -78.5664 -13.9186 10.1678
rtibia 94.3479
rfoot 6.74249 1.27841
rtoes 2.61346
lfemur -110.919 46.3263 -30.4873
ltibia 144.737
lfoot 0.362645 -14.7253
ltoes -3.57812
